<mxfile host="app.diagrams.net" modified="2023-12-19T12:33:49.476Z" agent="Mozilla/5.0 (Windows NT 10.0; Win64; x64) AppleWebKit/537.36 (KHTML, like Gecko) Chrome/120.0.0.0 Safari/537.36" etag="bCQsC7Oir5se1nOoL0zs" version="22.1.11" type="device">
  <diagram name="Page-1" id="DhEzug-SRXJGOD-ie6kX">
    <mxGraphModel dx="1444" dy="749" grid="1" gridSize="10" guides="1" tooltips="1" connect="1" arrows="1" fold="1" page="1" pageScale="1" pageWidth="827" pageHeight="1169" math="0" shadow="0">
      <root>
        <mxCell id="0" />
        <mxCell id="1" parent="0" />
        <mxCell id="Nna9GpIXTsRF0iKO7nXj-17" value="Main Script" style="ellipse;whiteSpace=wrap;html=1;aspect=fixed;align=center;horizontal=1;verticalAlign=top;fontSize=34;labelBackgroundColor=none;fillColor=#008a00;fontColor=#ffffff;strokeColor=#005700;" parent="1" vertex="1">
          <mxGeometry x="40" y="30" width="750" height="750" as="geometry" />
        </mxCell>
        <mxCell id="Nna9GpIXTsRF0iKO7nXj-18" value="internsctl" style="ellipse;whiteSpace=wrap;html=1;aspect=fixed;align=center;verticalAlign=top;fontSize=36;labelBackgroundColor=none;fillColor=#a20025;fontColor=#ffffff;strokeColor=#6F0000;" parent="1" vertex="1">
          <mxGeometry x="110" y="95" width="620" height="620" as="geometry" />
        </mxCell>
        <mxCell id="Nna9GpIXTsRF0iKO7nXj-19" value="get_cpu_info  " style="ellipse;whiteSpace=wrap;html=1;aspect=fixed;fontSize=21;labelBackgroundColor=none;fillColor=#1ba1e2;fontColor=#ffffff;strokeColor=#006EAF;" parent="1" vertex="1">
          <mxGeometry x="150" y="270" width="160" height="160" as="geometry" />
        </mxCell>
        <mxCell id="Nna9GpIXTsRF0iKO7nXj-20" value="get_memory_info" style="ellipse;whiteSpace=wrap;html=1;aspect=fixed;fontSize=18;labelBackgroundColor=none;fillColor=#1ba1e2;fontColor=#ffffff;strokeColor=#006EAF;" parent="1" vertex="1">
          <mxGeometry x="335" y="150" width="160" height="160" as="geometry" />
        </mxCell>
        <mxCell id="Nna9GpIXTsRF0iKO7nXj-21" value="create_user  " style="ellipse;whiteSpace=wrap;html=1;aspect=fixed;fontSize=23;labelBackgroundColor=none;fillColor=#1ba1e2;fontColor=#ffffff;strokeColor=#006EAF;" parent="1" vertex="1">
          <mxGeometry x="530" y="270" width="160" height="160" as="geometry" />
        </mxCell>
        <mxCell id="Nna9GpIXTsRF0iKO7nXj-22" value="list_users   " style="ellipse;whiteSpace=wrap;html=1;aspect=fixed;fontSize=28;labelBackgroundColor=none;fillColor=#1ba1e2;fontColor=#ffffff;strokeColor=#006EAF;" parent="1" vertex="1">
          <mxGeometry x="200" y="470" width="170" height="170" as="geometry" />
        </mxCell>
        <mxCell id="Nna9GpIXTsRF0iKO7nXj-23" value="file_getinfo " style="ellipse;whiteSpace=wrap;html=1;aspect=fixed;fontSize=27;labelBackgroundColor=none;fillColor=#1ba1e2;fontColor=#ffffff;strokeColor=#006EAF;" parent="1" vertex="1">
          <mxGeometry x="460" y="460" width="170" height="170" as="geometry" />
        </mxCell>
      </root>
    </mxGraphModel>
  </diagram>
</mxfile>
